<svg width="40" height="49" viewBox="0 0 40 49" fill="none" xmlns="http://www.w3.org/2000/svg">
<g filter="url(#filter0_d_5086_3629)">
<path d="M31.2834 29.6305H8.74474M9.4122 23.5181H30.6159M20.0141 18.2628L20.0141 23.4829M20.0141 29.6305V40.8717M14.6745 40.8998C14.6697 40.1765 14.8106 39.4597 15.089 38.7921C15.4982 37.8253 16.1825 37.0002 17.057 36.4193C17.9314 35.8385 18.9573 35.5275 20.0071 35.5251C21.0356 35.5251 22.0422 35.8222 22.9059 36.3805C23.7696 36.9389 24.4537 37.7348 24.876 38.6727C25.187 39.364 25.3474 40.1136 25.3466 40.8717M29.548 18.2628V7.02158C29.5461 5.58429 28.9739 4.20651 27.9569 3.19085C26.9399 2.17519 25.5614 1.60474 24.1241 1.60474H15.904C14.4667 1.60474 13.0882 2.17519 12.0712 3.19085C11.0542 4.20651 10.482 5.58429 10.4801 7.02158V18.2628H29.548ZM35 19.3026C35 18.7212 34.7691 18.1637 34.358 17.7526C33.9469 17.3415 33.3893 17.1106 32.808 17.1106C32.2266 17.1106 31.669 17.3415 31.258 17.7526C30.8469 18.1637 30.6159 18.7212 30.6159 19.3026V29.6305H35V19.3026ZM9.4122 19.3026C9.4122 18.7212 9.18126 18.1637 8.77018 17.7526C8.35909 17.3415 7.80153 17.1106 7.22017 17.1106C6.92995 17.1069 6.64185 17.1608 6.37265 17.2693C6.10345 17.3778 5.85851 17.5386 5.65198 17.7426C5.44544 17.9465 5.28138 18.1894 5.16947 18.4572C5.05756 18.725 4.99998 19.0124 5 19.3026V29.6305H9.38407L9.4122 19.3026Z" stroke="#CC7861" stroke-width="2" stroke-miterlimit="10" shape-rendering="crispEdges"/>
</g>
<defs>
<filter id="filter0_d_5086_3629" x="0" y="0.604736" width="40" height="48.3018" filterUnits="userSpaceOnUse" color-interpolation-filters="sRGB">
<feFlood flood-opacity="0" result="BackgroundImageFix"/>
<feColorMatrix in="SourceAlpha" type="matrix" values="0 0 0 0 0 0 0 0 0 0 0 0 0 0 0 0 0 0 127 0" result="hardAlpha"/>
<feOffset dy="4"/>
<feGaussianBlur stdDeviation="2"/>
<feComposite in2="hardAlpha" operator="out"/>
<feColorMatrix type="matrix" values="0 0 0 0 0 0 0 0 0 0 0 0 0 0 0 0 0 0 0.25 0"/>
<feBlend mode="normal" in2="BackgroundImageFix" result="effect1_dropShadow_5086_3629"/>
<feBlend mode="normal" in="SourceGraphic" in2="effect1_dropShadow_5086_3629" result="shape"/>
</filter>
</defs>
</svg>
