<svg width="44" height="44" viewBox="0 0 44 44" fill="none" xmlns="http://www.w3.org/2000/svg">
<path d="M31.601 42.97V19.5675H12.399V42.97M31.601 42.97H12.399M31.601 42.97H43V25.982H31.601M31.601 42.97V25.982M12.399 42.97V25.982M12.399 42.97H1V25.982H12.399M12.399 25.982H31.601M20.1786 0.969971V5.85728L11.8937 12.589C11.8876 12.5996 11.8844 12.6115 11.8843 12.6237C11.8842 12.6359 11.8873 12.6479 11.8932 12.6586C11.8991 12.6692 11.9074 12.678 11.9178 12.6844C11.9282 12.6907 11.9404 12.6943 11.9526 12.6947H32.0946C32.1068 12.6943 32.1186 12.6907 32.129 12.6844C32.1394 12.678 32.148 12.6692 32.154 12.6586C32.1599 12.6479 32.163 12.6359 32.1629 12.6237C32.1628 12.6115 32.1595 12.5996 32.1534 12.589L23.9273 5.85728V0.969971M12.399 30.8458H1M43 30.8458H31.601M16.4298 30.1644H27.5702V39.0343H16.4298V30.1644Z" stroke="#CC7861" stroke-width="2" stroke-miterlimit="10"/>
</svg>
