<svg width="38" height="37" viewBox="0 0 38 37" fill="none" xmlns="http://www.w3.org/2000/svg">
<path d="M36.8378 21.6326V32.7031H1V21.6326M8.64951 20.7314H29.1883M4.82481 12.9279V6.78329C4.82752 5.50757 5.33615 4.2848 6.23937 3.38273C7.1426 2.48065 8.36681 1.97268 9.64416 1.96997H28.2039C29.4813 1.97268 30.7056 2.48065 31.6088 3.38273C32.5121 4.2848 33.0207 5.50757 33.0234 6.78329V12.9279M29.1883 26.579H36.8378V15.8465C36.8378 15.0724 36.5299 14.33 35.9819 13.7827C35.4338 13.2353 34.6905 12.9278 33.9154 12.9278H32.1107C31.3357 12.9278 30.5923 13.2353 30.0443 13.7827C29.4962 14.33 29.1883 15.0724 29.1883 15.8465V26.579ZM29.1883 26.579H8.33163M8.64951 32.7031V35.97H4.38383V32.7031M33.454 32.7031V35.97H29.1883V32.7031M3.9224 12.9278H5.72711C6.50218 12.9278 7.2455 13.2353 7.79356 13.7827C8.34161 14.33 8.64951 15.0724 8.64951 15.8465V26.579H1V15.8465C1 15.0724 1.30789 14.33 1.85595 13.7827C2.40401 13.2353 3.14733 12.9278 3.9224 12.9278Z" stroke="#CC7861" stroke-width="2" stroke-miterlimit="10"/>
</svg>
